<?xml version="1.0" encoding="utf-8"?>
<!-- Generator: Adobe Illustrator 23.0.6, SVG Export Plug-In . SVG Version: 6.00 Build 0)  -->
<svg version="1.1" id="Layer_1" xmlns="http://www.w3.org/2000/svg" xmlns:xlink="http://www.w3.org/1999/xlink" x="0px" y="0px"
	 viewBox="0 0 1200 1200" enable-background="new 0 0 1200 1200" xml:space="preserve">
<g>
	<g>
		<g>
			<g>
				<g>
					<path fill="#F2623D" d="M929.222,751.354c-2.823-3.812-7.494-2.986-18.595-2.59h-22.272h-22.272h-22.272H821.54h-22.272
						c0,0-21.786,0-22.264,0c-11.048,0-39.838-14.177-15.08-24.32c5.238-2.146,11.108-1.86,16.694-2.774
						c30.058-4.917,31.909-33.98,31.909-58.058c0-2.081-0.137-4.138-0.404-6.164c-4.734-35.926-49.844-57.08-82.533-55.098
						c-41.598,2.523-79.356,36.217-74.839,79.391c2.078,19.86,17.002,39.309,36.88,41.214c4.411,0.423,8.958,0.015,13.194,1.329
						c9.798,3.044,7.056,11.827,7.056,19.575v0.613v0.613v0.613v0.613v0.613v0.613v0.613c0,0,0,0.613-0.003,0.613
						c-58.865,0-118.438-2.599-177.2,0.198c-8.813,0.716-0.979,269.499-0.979,300.708c0,0.001,0,50.151,0,50.152
						c0,16.726-0.068,33.453,0.144,50.178c116.971-0.014,233.942-0.097,350.913-0.028c0,0,50.151,0,50.151-0.002
						c0-72.946-0.001-145.891-0.002-218.837c-0.001-37.992-0.001-75.985-0.002-113.978c0-16.989,3.486-38.173,0.004-54.743
						C931.736,756.835,930.749,753.416,929.222,751.354z"/>
				</g>
			</g>
		</g>
		<path fill="#1F4C93" d="M659.728,894.056c-1.266-1.769-2.593-3.455-3.975-5.049s-2.82-3.097-4.309-4.503s-3.029-2.714-4.615-3.918
			c-1.586-1.204-3.219-2.304-4.893-3.294c-1.674-0.99-3.39-1.869-5.143-2.63s-3.543-1.407-5.365-1.928
			c-1.822-0.521-3.676-0.918-5.558-1.185c-1.882-0.267-3.791-0.404-5.723-0.404h-1.402h-1.402h-1.402h-1.402h-1.402h-1.402h-1.402
			h-1.402h-1.402h-1.402h-1.402h-1.402h-1.402h-1.402h-1.402h-1.402c-1.158,0-2.302,0.082-3.43,0.242
			c-1.128,0.16-2.239,0.398-3.331,0.71s-2.165,0.699-3.215,1.155c-1.051,0.457-2.079,0.983-3.082,1.577s-1.982,1.253-2.933,1.974
			c-0.951,0.722-1.874,1.506-2.766,2.348c-0.892,0.843-1.754,1.744-2.583,2.699c-0.829,0.955-1.624,1.965-2.383,3.026
			c-0.759,1.061-1.482,2.172-2.165,3.329s-1.328,2.362-1.931,3.609s-1.164,2.537-1.681,3.866s-0.988,2.696-1.413,4.098
			s-0.801,2.839-1.128,4.307c-0.327,1.468-0.603,2.967-0.827,4.493s-0.394,3.079-0.508,4.655s-0.173,3.175-0.173,4.794
			c0,0.308-0.011,0.612-0.033,0.912s-0.054,0.595-0.097,0.886c-0.042,0.29-0.095,0.575-0.157,0.855
			c-0.062,0.279-0.134,0.553-0.215,0.819c-0.081,0.267-0.171,0.527-0.269,0.78c-0.098,0.253-0.205,0.498-0.32,0.735
			s-0.237,0.466-0.367,0.687c-0.13,0.22-0.268,0.432-0.412,0.633c-0.144,0.202-0.296,0.394-0.453,0.576
			c-0.158,0.182-0.322,0.353-0.491,0.513c-0.17,0.16-0.345,0.309-0.526,0.447c-0.181,0.137-0.367,0.263-0.558,0.376
			c-0.191,0.113-0.387,0.213-0.586,0.3s-0.404,0.16-0.612,0.22c-0.208,0.059-0.419,0.105-0.634,0.135s-0.432,0.046-0.652,0.046
			h-1.518h-1.518h-1.518h-1.518h-1.518h-1.518h-1.518h-1.518h-1.518h-1.518h-1.518h-1.518h-1.518h-1.518h-1.518h-1.518
			c-0.078,0-0.156,0.003-0.234,0.008s-0.154,0.012-0.231,0.022c-0.076,0.01-0.152,0.021-0.228,0.035s-0.151,0.03-0.225,0.047
			c-0.075,0.018-0.149,0.037-0.223,0.058c-0.074,0.021-0.147,0.044-0.22,0.068c-0.073,0.024-0.146,0.05-0.218,0.077
			c-0.072,0.027-0.144,0.055-0.216,0.085v-22.323v-22.323v-22.323v-22.323v-22.323V793.41v-22.323v-22.323h-50.151h-50.151h-50.151
			h-50.151h-50.151h-50.151h-50.151h-50.151v50.151v50.151v50.151v50.151v50.151v50.151v50.151v50.151h50.151h50.151h50.151h50.151
			h50.151h50.151h50.151H531.7v-22.323v-22.323v-22.323v-22.323v-22.323v-22.323v-22.323v-22.323
			c0.072,0.029,0.143,0.058,0.216,0.085c0.072,0.027,0.145,0.053,0.218,0.077c0.073,0.024,0.146,0.047,0.22,0.068
			s0.148,0.041,0.223,0.059c0.075,0.018,0.15,0.034,0.225,0.047s0.151,0.026,0.228,0.035c0.076,0.01,0.153,0.017,0.231,0.022
			s0.155,0.008,0.234,0.008h1.518h1.518h1.518h1.518h1.518h1.518h1.518h1.518h1.518h1.518h1.518h1.518h1.518h1.518h1.518h1.518
			c0.22,0,0.438,0.016,0.652,0.046c0.215,0.03,0.426,0.076,0.634,0.135c0.208,0.059,0.412,0.133,0.612,0.22
			c0.2,0.087,0.396,0.187,0.586,0.3c0.191,0.113,0.377,0.238,0.558,0.376c0.181,0.137,0.356,0.286,0.526,0.447
			s0.334,0.332,0.491,0.513c0.158,0.182,0.309,0.374,0.453,0.576c0.144,0.202,0.282,0.413,0.412,0.633s0.253,0.449,0.367,0.687
			c0.115,0.237,0.221,0.483,0.32,0.735c0.098,0.253,0.188,0.513,0.269,0.78c0.081,0.267,0.152,0.54,0.215,0.819
			c0.062,0.279,0.115,0.564,0.157,0.855c0.043,0.29,0.075,0.586,0.097,0.886s0.033,0.604,0.033,0.912
			c0,1.618,0.059,3.218,0.173,4.794s0.285,3.129,0.508,4.655s0.5,3.025,0.827,4.493c0.327,1.468,0.704,2.905,1.128,4.307
			s0.896,2.77,1.413,4.098s1.078,2.618,1.681,3.866c0.603,1.247,1.248,2.451,1.931,3.609s1.406,2.269,2.165,3.329
			c0.759,1.061,1.554,2.07,2.383,3.026c0.828,0.956,1.69,1.856,2.583,2.699s1.815,1.627,2.766,2.348
			c0.951,0.722,1.929,1.381,2.933,1.974c1.003,0.593,2.032,1.12,3.082,1.577c1.051,0.457,2.123,0.843,3.215,1.155
			c1.092,0.312,2.203,0.55,3.331,0.711c1.128,0.16,2.272,0.242,3.43,0.242h1.402h1.402h1.402h1.402h1.402h1.402h1.402h1.402h1.402
			h1.402h1.402h1.402h1.402h1.402h1.402h1.402c1.932,0,3.842-0.137,5.723-0.404s3.736-0.664,5.558-1.185
			c1.822-0.521,3.612-1.166,5.365-1.927c1.753-0.762,3.469-1.641,5.143-2.63c1.674-0.99,3.307-2.09,4.893-3.294
			c1.586-1.204,3.126-2.513,4.615-3.918s2.927-2.909,4.309-4.503s2.709-3.279,3.975-5.049c1.266-1.769,2.472-3.623,3.613-5.555
			c1.141-1.932,2.216-3.941,3.222-6.022c1.006-2.081,1.942-4.233,2.804-6.45c0.862-2.217,1.649-4.498,2.357-6.838
			c0.708-2.34,1.337-4.737,1.882-7.187c0.545-2.449,1.007-4.951,1.379-7.497c0.373-2.546,0.657-5.137,0.848-7.767
			c0.191-2.63,0.289-5.298,0.289-7.998s-0.098-5.368-0.289-7.998s-0.475-5.221-0.848-7.767c-0.373-2.546-0.834-5.047-1.379-7.497
			c-0.545-2.449-1.174-4.847-1.882-7.187c-0.708-2.34-1.495-4.621-2.357-6.838c-0.862-2.217-1.798-4.369-2.804-6.45
			c-1.006-2.081-2.082-4.09-3.222-6.022C662.2,897.679,660.994,895.825,659.728,894.056z"/>
		<g>
			<g>
				<path fill="#6BD1CC" d="M412.539,493.175c-10.486,13.125-15.986,29.952-17.072,46.774c-1.865,28.887,9.906,59.3,33.462,76.125
					c17.367,12.404,42.954,17.161,61.155,3.672c9.082-6.731,15.19-17.335,16.454-28.568c0.634-5.634,0.292-11.901,3.921-16.26
					c7.67-9.21,18.614-5.658,21.248,2.738c1.689,5.384,0,14.112,0,19.741c0,20.792,0,41.584,0,62.376c0,5.601,0,89.01,0,89.01
					c-0.049,0-401.218,0-401.218,0l0-401.218c28.174,0,56.348,0,84.522,0c20.354,0,40.709,0,61.063,0c7.043,0,14.215,0.395,21.247,0
					c11.69-0.656,11.424-1.634,11.647-15.264c0.242-14.806-10.753-13.28-21.617-16.355c-11.677-3.305-20.961-8.518-27.075-19.442
					c-6.978-12.467-8.522-27.238-8.484-41.525c0.075-28.087,7.14-56.272,29.553-74.791c1.93-1.595,3.938-3.098,6.018-4.505
					c24.667-16.679,58.437-17.547,83.987-2.211c34.369,20.629,44.919,67.589,37.119,104.938
					c-4.012,19.211-16.894,35.383-36.584,39.404c-1.526,0.312-3.079,0.549-4.656,0.709c-8.581,0.87-14.084,2.633-14.073,13.032
					c0.006,5.254,0.9,10.259,0.359,15.534c6.898,1.075,14.958,0.477,22.269,0.477h22.275h22.275h22.275h22.275h22.275h22.275h22.275
					v155.9v22.271c0,0-2.204,0-2.218,0c-5.733,0-15.278,2.223-19.525-2.367c-2.399-2.593-2.418-6.508-2.557-10.038
					c-0.721-18.252-11.853-43.382-33.25-43.382h-2.805c-21.49,0-40.572,3.079-55.878,19.796
					C414.454,490.857,413.477,492.001,412.539,493.175z"/>
			</g>
		</g>
		<path fill="#F8E471" d="M900.093,470.914v-1.635v-1.635v-1.635v-1.635v-1.635v-1.635v-1.635v-1.635
			c0-0.237-0.016-0.472-0.046-0.703c-0.03-0.231-0.076-0.459-0.135-0.683c-0.059-0.224-0.133-0.444-0.22-0.659
			c-0.087-0.215-0.187-0.426-0.3-0.632c-0.113-0.206-0.238-0.406-0.376-0.601c-0.137-0.195-0.286-0.384-0.447-0.567
			c-0.16-0.183-0.332-0.359-0.513-0.529c-0.182-0.17-0.374-0.333-0.576-0.488c-0.202-0.156-0.413-0.304-0.633-0.444
			c-0.22-0.14-0.449-0.272-0.687-0.396s-0.483-0.239-0.735-0.344c-0.253-0.106-0.513-0.203-0.78-0.289
			c-0.267-0.087-0.54-0.164-0.819-0.231c-0.279-0.067-0.564-0.124-0.855-0.169c-0.29-0.046-0.586-0.081-0.886-0.104
			s-0.604-0.035-0.912-0.035c-1.618,0-3.218-0.063-4.794-0.187c-1.576-0.123-3.129-0.307-4.655-0.548
			c-1.526-0.241-3.025-0.539-4.493-0.89s-2.905-0.758-4.307-1.215c-1.402-0.457-2.77-0.965-4.098-1.522s-2.618-1.161-3.866-1.81
			c-1.247-0.649-2.452-1.344-3.609-2.08s-2.269-1.515-3.329-2.332c-1.061-0.817-2.071-1.674-3.026-2.566
			c-0.955-0.892-1.856-1.821-2.699-2.782c-0.843-0.961-1.627-1.955-2.348-2.979c-0.722-1.024-1.381-2.078-1.974-3.159
			s-1.12-2.188-1.577-3.32c-0.457-1.132-0.843-2.287-1.155-3.463c-0.312-1.176-0.55-2.373-0.711-3.588
			c-0.16-1.215-0.242-2.447-0.242-3.695v-1.51v-1.51v-1.51v-1.51v-1.51v-1.51v-1.51v-1.51v-1.51v-1.51v-1.51v-1.51v-1.51v-1.51
			v-1.51v-1.51c0-2.081,0.137-4.138,0.404-6.164c0.267-2.027,0.664-4.024,1.185-5.986c0.521-1.962,1.166-3.89,1.928-5.778
			c0.762-1.888,1.641-3.736,2.63-5.539c0.99-1.803,2.09-3.562,3.294-5.27c1.204-1.709,2.513-3.367,3.918-4.971
			s2.909-3.153,4.503-4.641c1.594-1.489,3.279-2.918,5.049-4.282c1.769-1.364,3.623-2.663,5.555-3.891
			c1.932-1.229,3.941-2.387,6.022-3.471c2.081-1.083,4.233-2.092,6.45-3.02s4.498-1.776,6.838-2.539
			c2.34-0.763,4.737-1.44,7.187-2.027c2.449-0.587,4.95-1.084,7.497-1.486c2.546-0.402,5.137-0.708,7.767-0.914
			s5.298-0.311,7.998-0.311c2.7,0,5.368,0.105,7.998,0.311c2.63,0.206,5.221,0.512,7.767,0.914c2.546,0.402,5.047,0.898,7.497,1.486
			c2.449,0.587,4.847,1.265,7.187,2.027c2.34,0.763,4.621,1.611,6.838,2.539c2.217,0.928,4.369,1.937,6.45,3.02
			c2.081,1.083,4.09,2.242,6.022,3.471c1.932,1.229,3.786,2.528,5.555,3.891c1.769,1.364,3.455,2.793,5.049,4.282
			c1.594,1.489,3.097,3.038,4.503,4.641s2.714,3.262,3.918,4.971c1.204,1.709,2.304,3.467,3.294,5.27
			c0.99,1.803,1.869,3.651,2.63,5.539s1.407,3.816,1.928,5.778c0.521,1.962,0.918,3.96,1.185,5.986
			c0.267,2.027,0.404,4.083,0.404,6.164v1.51v1.51v1.51v1.51v1.51v1.51v1.51v1.51v1.51v1.51v1.51v1.51v1.51v1.51v1.51v1.51
			c0,1.247-0.082,2.48-0.242,3.695s-0.398,2.412-0.71,3.588c-0.312,1.176-0.699,2.332-1.155,3.463
			c-0.457,1.132-0.983,2.239-1.577,3.32c-0.593,1.081-1.253,2.135-1.974,3.159s-1.506,2.018-2.348,2.979s-1.744,1.889-2.699,2.782
			c-0.955,0.892-1.965,1.749-3.026,2.566c-1.061,0.817-2.172,1.596-3.329,2.332s-2.362,1.431-3.609,2.08
			c-1.247,0.649-2.537,1.254-3.866,1.81c-1.329,0.556-2.696,1.065-4.098,1.522c-1.402,0.457-2.839,0.863-4.307,1.215
			s-2.967,0.65-4.493,0.89c-1.526,0.241-3.079,0.424-4.655,0.548c-1.576,0.123-3.175,0.187-4.794,0.187
			c-0.308,0-0.612,0.012-0.912,0.035s-0.595,0.058-0.886,0.104s-0.576,0.102-0.855,0.169c-0.279,0.067-0.553,0.144-0.819,0.231
			c-0.267,0.087-0.527,0.184-0.78,0.289c-0.253,0.106-0.498,0.221-0.735,0.344c-0.237,0.124-0.466,0.256-0.687,0.396
			s-0.432,0.288-0.633,0.444c-0.202,0.155-0.394,0.318-0.576,0.488c-0.182,0.17-0.353,0.346-0.513,0.529
			c-0.16,0.183-0.309,0.372-0.447,0.567c-0.137,0.195-0.263,0.395-0.376,0.601c-0.113,0.206-0.213,0.416-0.3,0.632
			c-0.087,0.215-0.16,0.435-0.22,0.659c-0.059,0.224-0.105,0.451-0.135,0.683c-0.03,0.231-0.046,0.466-0.046,0.703v1.635v1.635
			v1.635v1.635v1.635v1.635v1.635v1.635v0.613v0.613v0.613v0.613v0.613v0.613v0.613v0.613h22.272h22.272h22.272h22.272h22.272
			h22.271h22.272h22.272v-50.15v-50.15v-50.15v-50.15v-50.15v-50.15v-50.15v-50.15h-50.149h-50.149h-50.149h-50.149h-50.149h-50.149
			h-50.149h-50.149V96.89v22.271v22.271v22.271v22.271v22.271v22.271v22.271h-2.204h-2.204h-2.204h-2.204h-2.204h-2.204h-2.204
			h-2.204c-0.22,0-0.438-0.016-0.652-0.046c-0.214-0.03-0.425-0.076-0.633-0.135c-0.207-0.059-0.411-0.133-0.61-0.219
			c-0.199-0.087-0.394-0.187-0.584-0.299s-0.375-0.238-0.555-0.375s-0.355-0.286-0.524-0.446c-0.169-0.16-0.332-0.331-0.489-0.512
			c-0.157-0.181-0.307-0.373-0.451-0.574c-0.147-0.201-0.287-0.412-0.419-0.632c-0.132-0.22-0.256-0.448-0.373-0.685
			s-0.224-0.482-0.324-0.734c-0.099-0.252-0.19-0.512-0.271-0.779s-0.154-0.54-0.216-0.82c-0.063-0.28-0.116-0.565-0.158-0.856
			c-0.043-0.291-0.075-0.588-0.097-0.889c-0.022-0.301-0.033-0.607-0.033-0.917c0-1.616-0.058-3.214-0.172-4.789
			c-0.114-1.575-0.283-3.127-0.506-4.652c-0.222-1.525-0.498-3.024-0.823-4.492c-0.326-1.468-0.701-2.905-1.125-4.307
			c-0.423-1.402-0.894-2.77-1.41-4.099c-0.516-1.329-1.076-2.619-1.679-3.866c-0.603-1.247-1.247-2.452-1.931-3.61
			c-0.684-1.158-1.408-2.269-2.168-3.33s-1.556-2.07-2.386-3.026s-1.692-1.856-2.585-2.698c-0.893-0.842-1.816-1.626-2.767-2.347
			c-0.951-0.721-1.929-1.38-2.932-1.973c-1.003-0.593-2.031-1.119-3.081-1.575c-1.05-0.456-2.122-0.842-3.212-1.154
			c-1.091-0.312-2.201-0.55-3.327-0.709s-2.269-0.242-3.426-0.242h-2.805h-2.805h-2.805h-2.805h-2.805h-2.805h-2.805h-2.805
			c-1.933,0-3.842,0.137-5.724,0.403s-3.736,0.663-5.557,1.184c-1.822,0.52-3.611,1.164-5.363,1.925
			c-1.752,0.761-3.468,1.639-5.142,2.628s-3.306,2.088-4.892,3.291c-1.586,1.203-3.126,2.511-4.616,3.916
			c-1.489,1.405-2.928,2.908-4.312,4.502c-1.383,1.594-2.711,3.279-3.98,5.049c-1.265,1.77-2.47,3.624-3.609,5.556
			c-1.14,1.932-2.214,3.943-3.219,6.025c-1.005,2.082-1.94,4.235-2.801,6.453c-0.861,2.218-1.648,4.5-2.355,6.841
			c-0.708,2.341-1.336,4.74-1.881,7.19c-0.545,2.45-1.006,4.952-1.378,7.499c-0.373,2.547-0.657,5.138-0.848,7.767
			c-0.191,2.63-0.289,5.297-0.289,7.997s0.098,5.367,0.289,7.995c0.191,2.629,0.475,5.219,0.848,7.765
			c0.372,2.545,0.833,5.046,1.378,7.494s1.173,4.846,1.881,7.185c0.708,2.339,1.494,4.62,2.355,6.836
			c0.861,2.216,1.796,4.368,2.801,6.449s2.08,4.09,3.219,6.022s2.344,3.786,3.609,5.555c1.268,1.77,2.596,3.455,3.98,5.05
			c1.383,1.595,2.822,3.098,4.312,4.505c1.489,1.406,3.03,2.715,4.616,3.92c1.586,1.205,3.219,2.306,4.892,3.296
			s3.389,1.87,5.142,2.632c1.752,0.762,3.542,1.408,5.363,1.929c1.822,0.521,3.676,0.919,5.557,1.187s3.791,0.404,5.724,0.404h2.805
			h2.805h2.805h2.805h2.805h2.805h2.805h2.805c1.156,0,2.299-0.082,3.426-0.243s2.237-0.399,3.327-0.712
			c1.091-0.313,2.163-0.7,3.212-1.158c1.05-0.458,2.078-0.985,3.081-1.58c1.003-0.594,1.981-1.255,2.932-1.977
			c0.951-0.723,1.874-1.508,2.767-2.351s1.755-1.745,2.585-2.701s1.625-1.966,2.386-3.027s1.484-2.171,2.168-3.329
			c0.684-1.157,1.329-2.361,1.931-3.608c0.603-1.246,1.163-2.535,1.679-3.863c0.516-1.328,0.986-2.694,1.41-4.096
			c0.423-1.402,0.799-2.838,1.125-4.306c0.326-1.468,0.601-2.966,0.823-4.492c0.222-1.526,0.392-3.079,0.506-4.656
			s0.172-3.177,0.172-4.796c0-0.307,0.011-0.61,0.033-0.909c0.022-0.299,0.054-0.593,0.097-0.883s0.096-0.574,0.158-0.853
			c0.063-0.279,0.135-0.552,0.216-0.819c0.081-0.267,0.172-0.527,0.271-0.78c0.099-0.253,0.207-0.499,0.324-0.738
			c0.116-0.238,0.241-0.469,0.373-0.691c0.132-0.222,0.272-0.436,0.419-0.64c0.144-0.201,0.294-0.393,0.451-0.574
			s0.32-0.352,0.489-0.512c0.169-0.16,0.344-0.309,0.524-0.446c0.18-0.137,0.365-0.262,0.555-0.375
			c0.19-0.113,0.385-0.213,0.584-0.299c0.199-0.087,0.403-0.16,0.61-0.219c0.207-0.059,0.418-0.105,0.633-0.135
			c0.214-0.03,0.432-0.046,0.652-0.046h2.204h2.204h2.204h2.204h2.204h2.204h2.204h2.204v22.272v22.272v22.272v22.272v22.272v22.272
			v22.272v22.272h22.272h22.272h22.272h22.272h22.272h22.272h22.272h22.272v-0.613v-0.613v-0.613v-0.613v-0.613v-0.613v-0.613
			V470.914z"/>
	</g>
	<path fill="#1A1A1C" d="M901.452,730.67c-0.737-1.694-1.779-3.208-3.048-4.447c-1.293-1.278-2.796-2.284-4.559-3.028
		c-1.737-0.718-3.57-1.082-5.45-1.082H732.934c4.955-0.742,9.693-2.05,14.16-3.915c6.833-2.849,12.88-6.93,17.972-12.127
		c5.036-5.137,9-11.22,11.78-18.074c2.754-6.786,4.282-14.179,4.542-21.968c0.416-12.298-1.344-23.899-5.224-34.48
		c-3.813-10.402-9.612-19.676-17.235-27.563c-7.414-7.671-16.403-13.875-26.719-18.439c-10.106-4.468-21.313-7.28-33.308-8.354
		c-7.358-0.656-14.922-0.518-22.492,0.42c-7.645,0.946-15.157,2.686-22.327,5.171c-7.489,2.594-14.506,5.968-20.855,10.028
		c-6.796,4.346-12.791,9.458-17.813,15.189c-6.009,6.855-10.858,15.736-14.02,25.686c-3.034,9.551-4.453,19.847-4.098,29.78
		c0.385,10.747,2.866,20.917,7.168,29.404c5.02,9.908,12.618,17.72,21.975,22.594c3.162,1.647,6.838,2.824,11.562,3.704
		c2.601,0.485,5.196,0.824,7.704,1.152l2.168,0.288c2.461,0.334,4.995,0.719,6.872,1.27c0.145,0.043,0.274,0.084,0.394,0.122
		c0.003,0.025,0.003,0.05,0.003,0.075c-3.553-0.01-7.112-0.008-10.671-0.001l-141.827,0.038V558.702c0-1.93-0.385-3.81-1.087-5.451
		c-0.718-1.73-1.754-3.282-3.084-4.612c-1.305-1.304-2.824-2.328-4.595-3.075c-1.743-0.725-3.584-1.092-5.467-1.092h-3.036
		c-0.891,0-1.883-0.092-2.913-0.173l-0.961-0.074c-2.148-0.162-4.472-0.291-6.936-0.145c-3.673,0.221-6.841,1.018-9.662,2.429
		c-4.028,2.007-7.21,5.225-9.19,9.296c-0.872,1.788-1.545,3.74-2.008,5.841c-0.33,1.522-0.548,3.131-0.676,4.951
		c-0.084,1.272-0.115,2.562-0.131,3.849l-0.006,0.43c-0.008,0.788-0.017,1.573-0.047,2.328c-0.154,3.434-1.067,6.852-2.715,10.151
		c-1.654,3.317-3.975,6.387-6.897,9.126c-2.897,2.716-6.349,5.024-9.986,6.672c-3.698,1.676-7.497,2.669-11.296,2.95
		c-3.936,0.289-7.983-0.052-12.028-1.017c-3.997-0.954-7.958-2.503-11.777-4.603c-3.796-2.087-7.386-4.679-10.665-7.703
		c-3.277-3.022-6.168-6.4-8.595-10.044c-2.07-3.105-3.908-6.482-5.469-10.049c-1.522-3.475-2.807-7.192-3.819-11.048
		c-0.983-3.757-1.724-7.712-2.196-11.747c-0.461-3.965-0.668-8.035-0.615-12.105c0.05-4.226,0.388-8.44,1-12.524
		c0.626-4.173,1.542-8.25,2.726-12.116c1.207-3.947,2.707-7.729,4.461-11.243c1.788-3.58,3.866-6.936,6.176-9.972l0.802-1.025
		c0.246-0.31,0.497-0.619,0.737-0.908l1.62-1.863c2.802-3.085,6.028-5.841,9.584-8.19c3.556-2.351,7.355-4.233,11.288-5.597
		c3.947-1.369,7.944-2.182,11.88-2.416c3.975-0.242,7.855,0.123,11.523,1.074c2.173,0.563,4.335,1.394,6.43,2.475
		c2.089,1.077,4.095,2.394,5.958,3.915c1.863,1.518,3.567,3.226,5.067,5.074c1.494,1.844,2.774,3.816,3.796,5.851
		c0.374,0.747,0.682,1.909,0.913,3.468c0.268,1.799,0.402,3.87,0.548,6.064l0.053,0.848c0.204,3.001,0.455,6.2,1.12,9.422
		c0.927,4.482,2.489,8.215,4.718,11.327c0.232,0.327,0.472,0.648,0.662,0.884c0.207,0.258,0.411,0.506,0.559,0.673
		c0.218,0.253,0.436,0.494,0.735,0.807c0.21,0.216,0.419,0.427,0.634,0.633c0.249,0.235,0.503,0.464,0.76,0.682
		c0.263,0.225,0.534,0.443,0.805,0.651c0.277,0.212,0.561,0.415,0.846,0.61c0.332,0.225,0.662,0.436,1.006,0.637
		c0.26,0.154,0.528,0.302,0.927,0.511c0.36,0.186,0.721,0.355,0.969,0.462c0.358,0.158,0.723,0.304,1.142,0.457
		c0.302,0.109,0.612,0.211,1.162,0.376c0.366,0.103,0.74,0.196,1.176,0.289c0.374,0.08,0.751,0.147,1.17,0.208
		c0.439,0.061,0.863,0.105,1.137,0.122c0.436,0.034,0.874,0.05,1.313,0.05h16.221c1.883,0,3.724-0.367,5.539-1.122
		c1.698-0.718,3.218-1.742,4.522-3.046c1.33-1.33,2.366-2.881,3.025-4.475c0.76-1.778,1.145-3.658,1.145-5.588l0.006-118.068
		c0-4.506,0.204-9.303,0.402-13.4l0.246-4.87c0.165-3.242,0.332-6.507,0.464-9.781c0.237-5.967,0.296-10.84,0.19-15.344
		c-0.142-5.764-0.57-10.876-1.296-15.566c-0.265-1.774-0.858-3.46-1.662-4.842c-0.838-1.499-1.93-2.82-3.204-3.89
		c-1.271-1.078-2.707-1.919-4.271-2.497c-1.589-0.589-3.257-0.888-4.953-0.888H324.6c-0.061-1.205-0.092-2.384-0.011-3.292
		c0.374-0.144,0.807-0.278,1.31-0.405c0.816-0.208,1.791-0.391,3.14-0.591c0.757-0.11,1.514-0.211,2.271-0.311l2.215-0.302
		c1.514-0.218,3.525-0.532,5.634-1.035c4.106-0.982,8.112-2.567,11.908-4.715c3.5-1.982,6.83-4.45,9.9-7.34
		c2.872-2.708,5.506-5.777,7.824-9.112c2.243-3.224,4.193-6.69,5.793-10.307c1.472-3.33,2.729-6.894,3.726-10.584
		c0.908-3.341,1.64-6.915,2.176-10.611c0.486-3.31,0.824-6.724,1.034-10.436c0.176-3.147,0.257-6.454,0.249-10.108
		c-0.014-4.647-0.165-8.936-0.466-13.115c-0.335-4.647-0.858-9.133-1.556-13.334c-0.774-4.638-1.788-9.13-3.017-13.361
		c-1.338-4.58-2.972-9-4.869-13.148c-3.576-7.813-8.369-15.116-14.246-21.704c-5.696-6.383-12.294-11.977-19.618-16.629
		c-7.321-4.647-15.19-8.239-23.389-10.679c-8.467-2.517-17.045-3.738-25.705-3.668c-8.587,0.087-17.207,1.492-25.618,4.175
		c-8.145,2.598-15.945,6.344-23.177,11.134c-7.224,4.785-13.715,10.503-19.291,16.995c-5.757,6.703-10.414,14.091-13.841,21.954
		c-1.735,3.981-3.238,8.221-4.464,12.599c-1.134,4.046-2.07,8.34-2.782,12.753c-0.648,4.014-1.14,8.291-1.458,12.714
		c-0.288,3.985-0.441,8.071-0.469,12.491c-0.025,3.927,0.056,7.479,0.251,10.855c0.229,3.993,0.606,7.654,1.154,11.194
		c0.612,3.961,1.453,7.785,2.5,11.376c1.159,3.965,2.612,7.757,4.316,11.273c1.858,3.834,4.131,7.481,6.757,10.841
		c2.707,3.464,5.757,6.576,9.062,9.249c3.534,2.86,7.335,5.198,11.299,6.951c4.31,1.906,8.799,3.119,13.352,3.602
		c1.453,0.154,2.947,0.237,4.724,0.33c1.059,0.056,2.117,0.108,3.14,0.233c0.07,0.008,0.14,0.018,0.201,0.027
		c0.031,0.356,0.053,0.818,0.056,1.413c0.006,0.859-0.025,1.737-0.067,2.624L91.12,322.124c-1.913,0-3.777,0.377-5.536,1.12
		c-1.696,0.716-3.218,1.742-4.522,3.048c-1.293,1.293-2.313,2.799-3.087,4.612c-0.718,1.739-1.084,3.573-1.084,5.45v397.291
		c0,0.556,0.043,1.109,0.11,1.663c-0.025,0.347-0.104,0.685-0.104,1.035v397.282c0,1.95,0.388,3.841,1.156,5.623
		c0.721,1.666,1.732,3.159,3.011,4.439c1.299,1.3,2.819,2.324,4.525,3.048c1.76,0.743,3.623,1.12,5.536,1.12h397.28
		c0.216,0,0.425-0.054,0.64-0.064c0.249,0.01,0.465,0.064,0.721,0.064l130.037,0.003l268.601-0.003c1.913,0,3.777-0.377,5.623-1.158
		c1.668-0.718,3.159-1.73,4.439-3.01c1.279-1.279,2.291-2.772,3.011-4.439c0.768-1.782,1.156-3.673,1.156-5.623l0.003-146.915
		l-0.011-250.387C902.625,734.448,902.259,732.617,901.452,730.67z M476.858,815.346l-0.05,135.179
		c-0.014,47.356-0.02,93.471-0.008,127.749c0.006,17.144,0.017,31.328,0.031,41.226l0.006,2.61H102.64V747.874l374.249,0
		C476.884,762.354,476.873,786.267,476.858,815.346z M476.9,722.112H102.634V347.867l97.402,0.013l65.859-0.022
		c2.095,0,4.117-0.448,6.009-1.332c1.835-0.856,3.436-2.068,4.712-3.553c1.257-1.448,2.196-3.11,2.846-5.11
		c0.567-1.825,0.76-3.717,0.575-5.658c-0.142-1.434-0.075-3.293,0.017-5.073l0.081-1.474c0.117-2.028,0.237-4.126,0.223-6.32
		c-0.025-3.996-0.5-7.271-1.492-10.306c-1.469-4.496-4.036-8.238-7.612-11.106c-2.129-1.714-4.584-3.055-7.305-3.989
		c-1.95-0.666-4.05-1.133-6.436-1.429c-1.623-0.2-3.288-0.304-5.235-0.406c-1.036-0.054-2.073-0.102-3.073-0.207
		c-1.886-0.201-3.788-0.721-5.651-1.545c-1.891-0.837-3.749-1.989-5.522-3.423c-1.791-1.448-3.464-3.162-4.969-5.09
		c-1.506-1.925-2.807-4.014-3.872-6.212c-1.084-2.233-2.017-4.683-2.777-7.27c-0.729-2.506-1.324-5.225-1.765-8.081
		c-0.419-2.721-0.712-5.583-0.897-8.746c-0.162-2.821-0.229-5.831-0.207-9.204c0.025-3.856,0.156-7.394,0.402-10.813
		c0.265-3.666,0.665-7.182,1.196-10.456c0.559-3.467,1.285-6.802,2.156-9.916c0.908-3.242,2.008-6.354,3.274-9.254
		c2.402-5.511,5.69-10.717,9.771-15.47c4.031-4.69,8.735-8.831,13.981-12.306c5.249-3.478,10.894-6.193,16.783-8.069
		c5.964-1.904,12.037-2.9,18.051-2.958c6-0.099,12.104,0.814,18.107,2.601c5.922,1.761,11.62,4.365,16.931,7.735
		c5.313,3.376,10.092,7.423,14.207,12.035c4.162,4.666,7.545,9.806,10.045,15.271c1.377,3.014,2.576,6.261,3.562,9.644
		c0.947,3.25,1.735,6.743,2.341,10.386c0.567,3.416,0.997,7.102,1.274,10.957c0.257,3.581,0.388,7.289,0.399,11.335
		c0.008,3.141-0.059,5.95-0.21,8.585c-0.165,2.944-0.427,5.613-0.802,8.175c-0.391,2.684-0.911,5.235-1.55,7.59
		c-0.662,2.443-1.475,4.764-2.422,6.9c-0.936,2.117-2.073,4.143-3.386,6.028c-1.307,1.881-2.771,3.589-4.341,5.071
		c-1.567,1.474-3.226,2.711-4.93,3.676c-1.693,0.958-3.447,1.658-5.204,2.078c-1.089,0.26-2.346,0.454-3.31,0.592l-1.95,0.264
		c-0.874,0.117-1.749,0.233-2.637,0.363c-2.263,0.335-4.025,0.676-5.721,1.106c-2.433,0.619-4.609,1.398-6.651,2.383
		c-4.433,2.138-7.902,5.204-10.307,9.109c-1.978,3.208-3.156,6.81-3.601,11.009c-0.316,2.975-0.215,5.817-0.056,8.464l0.098,1.541
		c0.092,1.374,0.193,2.742,0.193,4.062v3.601c0,1.946,0.391,3.837,1.087,5.45c0.726,1.756,1.782,3.324,3.084,4.61
		c1.305,1.304,2.824,2.328,4.522,3.046c1.76,0.743,3.623,1.12,5.539,1.12h164.655c0.036,0.834,0.067,1.689,0.087,2.564
		c0.095,3.939,0.039,8.293-0.173,13.694c-0.128,3.169-0.29,6.338-0.453,9.483l-0.251,4.947c-0.212,4.405-0.43,9.591-0.43,14.646
		L476.9,492.91c-0.148-2.172-0.335-4.539-0.69-6.915c-0.64-4.312-1.74-7.979-3.369-11.229c-1.86-3.696-4.148-7.232-6.807-10.509
		c-2.606-3.217-5.564-6.182-8.791-8.812c-3.246-2.648-6.757-4.953-10.43-6.845c-3.791-1.955-7.752-3.475-11.771-4.515
		c-6.274-1.627-12.849-2.244-19.514-1.852c-6.291,0.376-12.609,1.652-18.78,3.792c-5.961,2.067-11.696,4.905-17.045,8.44
		c-5.344,3.529-10.204,7.689-14.458,12.37c-0.402,0.441-0.799,0.888-1.173,1.321c-0.391,0.448-0.779,0.904-1.173,1.379
		c-0.388,0.466-0.774,0.937-1.112,1.367c-0.366,0.46-0.729,0.925-1.087,1.391l-0.017,0.021c-3.291,4.323-6.232,9.063-8.743,14.091
		c-2.388,4.786-4.425,9.905-6.048,15.211c-1.55,5.077-2.751,10.404-3.564,15.829c-0.785,5.239-1.218,10.629-1.285,16.017
		c-0.064,5.164,0.198,10.345,0.788,15.408c0.612,5.233,1.575,10.38,2.866,15.298c1.349,5.152,3.081,10.15,5.137,14.845
		c2.162,4.936,4.729,9.647,7.629,13.997c3.556,5.341,7.785,10.284,12.567,14.696c4.81,4.433,10.098,8.247,15.71,11.333
		c5.838,3.211,11.961,5.595,18.204,7.085c6.631,1.582,13.333,2.137,19.906,1.651c6.827-0.506,13.565-2.247,20.026-5.177
		c6.26-2.837,11.97-6.652,16.964-11.338c5.154-4.83,9.299-10.348,12.324-16.407c1.592-3.191,2.841-6.465,3.738-9.803V722.112z
		 M502.561,925.668c0.757,0.016,1.541,0.046,2.276,0.048c3.536-0.013,8.126-0.152,12.609-1.511
		c5.724-1.733,10.213-5.032,13.347-9.817c2.961-4.532,4.514-10.134,4.752-17.125c0.296-8.666,3.003-15.447,8.048-20.154
		c5.849-5.458,13.654-7.21,19.174-7.719c8.101-0.751,16.942,0.634,24.925,3.888c8.145,3.316,14.766,8.246,19.143,14.259
		c3.131,4.299,5.793,9.27,7.919,14.774c2.07,5.36,3.615,11.193,4.589,17.331c0.947,5.985,1.341,12.151,1.168,18.326
		c-0.17,6.05-0.877,11.971-2.098,17.593c-1.673,7.696-5.439,15.682-10.894,23.096c-5.531,7.52-12.349,13.82-19.71,18.218
		c-7.377,4.407-15.081,6.605-21.995,6.481c-7.573-0.18-14.699-3.157-21.179-8.848c-0.128-0.112-1.299-1.232-2.863-5.782
		c-1.226-3.574-2.251-7.964-3.246-12.21l-0.38-1.626c-1.335-5.669-2.712-11.153-4.846-15.929
		c-3.584-8.024-8.922-12.845-15.875-14.331c-2.184-0.465-4.52-0.73-7.134-0.809c-1.846-0.055-3.824-0.017-6.24,0.116
		c-0.498,0.028-0.996,0.065-1.495,0.098L502.561,925.668z M652.312,1122.113l-149.677-0.003V969.826
		c0.944-0.067,1.897-0.134,2.844-0.186c1.668-0.092,2.955-0.117,4.039-0.088c0.109,0.003,0.215,0.007,0.321,0.011
		c1.196,2.728,2.26,7.042,3.246,11.227l0.372,1.585c1.14,4.869,2.316,9.904,3.967,14.707c2.612,7.609,5.86,12.936,10.224,16.769
		c10.989,9.65,23.975,14.919,37.557,15.239c11.933,0.313,24.258-3.217,35.805-10.115c10.28-6.141,19.702-14.808,27.246-25.065
		c7.581-10.306,12.877-21.675,15.313-32.883c1.559-7.18,2.458-14.695,2.673-22.336c0.218-7.761-0.277-15.526-1.475-23.083
		c-1.26-7.928-3.277-15.521-5.997-22.569c-2.933-7.597-6.676-14.546-11.126-20.658v-0.001c-7.201-9.887-17.66-17.822-30.244-22.945
		c-11.741-4.781-24.883-6.793-36.998-5.68c-13.648,1.258-25.537,6.284-34.375,14.532c-10.076,9.402-15.682,22.577-16.21,38.1
		c-0.059,1.68-0.246,2.729-0.388,3.313c-0.95,0.182-2.402,0.272-4.327,0.272c-0.81-0.008-1.634-0.015-2.467-0.035v-152.08
		l141.875-0.041c3.57-0.004,7.137-0.007,10.69,0.001c3.55,0.01,7.101,0.029,10.682,0.066c1.955-0.038,3.768-0.345,5.453-1.041
		c1.718-0.696,3.263-1.708,4.643-3.057c1.285-1.271,2.305-2.753,3.048-4.444c0.726-1.67,1.12-3.444,1.176-5.31
		c0.034-1.182,0.156-2.462,0.277-3.785l0.067-0.763c0.179-2.021,0.369-4.384,0.358-6.821c-0.011-3.277-0.38-6.157-1.134-8.807
		c-1.103-3.89-3.034-7.233-5.738-9.943c-3.042-3.046-6.975-5.249-12.031-6.735c-3.52-1.032-7.204-1.609-10.657-2.078l-2.296-0.304
		c-2.268-0.296-4.411-0.577-6.327-0.934c-2.749-0.513-3.933-0.992-4.391-1.229c-4.62-2.408-8.288-6.242-10.9-11.4
		c-2.629-5.185-4.151-11.647-4.405-18.686c-0.249-7.01,0.757-14.295,2.908-21.063c2.095-6.594,5.154-12.305,8.844-16.514
		c3.422-3.906,7.57-7.429,12.324-10.469c4.645-2.971,9.83-5.458,15.411-7.391c5.467-1.894,11.207-3.222,17.062-3.947
		c5.763-0.711,11.492-0.823,17.034-0.328c9.187,0.824,17.662,2.929,25.19,6.257c7.263,3.212,13.528,7.514,18.623,12.787
		c5.109,5.286,9.003,11.521,11.573,18.535c2.735,7.456,3.969,15.782,3.668,24.753c-0.159,4.754-1.059,9.179-2.67,13.155
		c-1.514,3.731-3.634,7.003-6.307,9.729c-2.67,2.724-5.866,4.874-9.5,6.391c-3.916,1.634-8.313,2.522-13.065,2.641l-2.087,0.042
		c-1.003,0.028-2.006,0.082-3,0.186c-1.402,0.145-2.69,0.377-3.941,0.71c-1.642,0.436-3.207,1.05-4.67,1.838
		c-6.165,3.326-8.182,10.108-8.847,12.337c-0.841,2.827-1.514,6.24-2.006,10.159c-0.388,3.134-0.626,6.345-0.665,9.024
		c-0.053,3.145-0.14,8.409,3.983,12.599l3.855,3.88h170.144l0.006,374.255L652.312,1122.113z M1091.177,58.78
		c-0.718-1.73-1.754-3.282-3.084-4.612c-1.324-1.324-2.872-2.359-4.439-3.008c-1.785-0.77-3.676-1.159-5.623-1.159H934.154
		c-7.109,0-12.872,5.763-12.872,12.872c0,7.109,5.763,12.872,12.872,12.872h132.363V449.99H924.656
		c-1.972,0-3.785,0.064-5.453,0.144c2.12-0.318,4.601-0.714,7.134-1.23c2.919-0.594,5.536-1.271,8.017-2.074
		c2.995-0.975,5.735-2.117,8.377-3.492c9.55-4.975,17.204-12.911,22.132-22.953c4.201-8.563,6.486-18.822,6.615-29.671
		c0.112-9.866-1.536-20.14-4.763-29.709c-3.307-9.81-8.187-18.604-14.112-25.434c-4.042-4.655-8.715-8.902-13.886-12.619
		c-4.886-3.515-10.271-6.595-16.003-9.15c-5.461-2.436-11.277-4.413-17.285-5.879c-5.816-1.418-11.83-2.359-17.875-2.8
		c-8.928-0.649-18.598-0.066-27.953,1.683c-9.849,1.839-19.188,4.874-27.758,9.018c-9.447,4.567-17.59,10.316-24.199,17.086
		c-7.492,7.668-12.855,16.482-15.945,26.212c-0.866,2.735-1.573,5.662-2.101,8.715c-0.458,2.662-0.788,5.418-1.008,8.423
		c-0.179,2.45-0.285,5.073-0.327,8.02c-0.034,2.52-0.017,5.042,0.003,7.546c0.014,1.902,0.036,3.817,0.098,5.729
		c0.075,2.302,0.204,4.351,0.397,6.263c0.24,2.398,0.575,4.592,1.028,6.731c0.539,2.517,1.215,4.823,2.067,7.045
		c1.902,4.975,4.724,9.58,8.388,13.693c3.305,3.705,7.268,6.978,11.774,9.721c4.131,2.521,8.687,4.583,13.534,6.126
		c4.475,1.425,9.115,2.384,13.802,2.856H692.279l-0.006-68.036l0.006-79.549c0-0.668,0.084-1.534,0.156-2.501l0.034-0.419
		c0.134-1.767,0.265-3.714,0.29-5.616c0.034-2.805-0.168-5.214-0.617-7.362c-0.869-4.166-2.71-7.566-5.469-10.098
		c-2.849-2.62-6.598-4.145-11.464-4.666c-3.369-0.359-6.704-0.161-8.914,0.068c-3.076,0.321-6.059,0.912-8.623,1.707
		c-4.335,1.344-7.556,3.288-9.835,5.939c-1.402,1.629-2.55,3.495-3.427,5.585c-0.648,1.557-1.145,3.257-1.472,5.048
		c-0.223,1.221-0.383,2.522-0.486,3.981c-0.053,0.784-0.089,1.568-0.123,2.342l-0.025,0.553c-0.092,1.975-0.274,3.901-0.542,5.722
		c-0.274,1.866-0.648,3.691-1.112,5.423c-0.466,1.746-1.034,3.423-1.684,4.986c-0.662,1.582-1.425,3.082-2.265,4.458
		c-2.578,4.207-6.257,7.194-11.243,9.129c-5,1.941-11.146,2.679-17.777,2.148c-6.623-0.535-13.411-2.298-19.626-5.095
		c-6.011-2.707-11.048-6.176-14.57-10.035c-2.506-2.743-4.782-5.842-6.76-9.207c-1.933-3.288-3.609-6.874-4.981-10.658
		c-1.344-3.71-2.411-7.65-3.173-11.706c-0.746-3.989-1.201-8.108-1.352-12.242c-0.274-7.497,0.19-15.303,1.338-22.57
		c1.268-8.002,3.324-15.308,6.109-21.714c2.941-6.768,6.651-12.397,11.017-16.731c4.656-4.617,9.95-7.731,16.185-9.516
		c1.545-0.443,3.212-0.811,4.961-1.099c1.673-0.277,3.439-0.483,5.391-0.63c1.768-0.133,3.668-0.214,5.796-0.244
		c2.059-0.031,4.115-0.01,6.159,0.031c3.196,0.064,6.123,0.436,8.701,1.106c2.391,0.623,4.528,1.515,6.355,2.658
		c1.796,1.12,3.307,2.475,4.62,4.138c1.439,1.82,2.643,4.042,3.581,6.599c0.531,1.45,1.084,4.726,1.38,6.486l0.184,1.092
		c0.531,3.169,1.134,6.761,2.034,10.323c1.38,5.443,3.229,9.796,5.657,13.309c3.768,5.454,9.039,9.018,15.257,10.31
		c1.805,0.372,3.679,0.603,5.556,0.686c1.765,0.084,3.584,0.036,5.414-0.138c1.729-0.165,3.472-0.444,5.179-0.83
		c1.676-0.378,3.338-0.865,4.975-1.455c1.436-0.524,2.771-1.271,3.888-2.159c1.179-0.923,2.198-2.02,3.031-3.26
		c0.818-1.212,1.436-2.531,1.768-3.679c0.439-1.384,0.659-2.828,0.659-4.437c-0.039-3.461-0.067-6.94-0.087-10.428
		c-0.02-3.5-0.031-7.01-0.039-10.513l-0.008-141.478h59.381c7.109,0,12.872-5.763,12.872-12.872s-5.763-12.872-12.872-12.872
		h-70.896c-1.947,0-3.838,0.39-5.536,1.122c-1.698,0.718-3.218,1.742-4.522,3.046c-1.282,1.282-2.296,2.775-3.087,4.612
		c-0.718,1.739-1.084,3.573-1.084,5.451l0.008,153.043c0.006,2.763,0.014,5.522,0.028,8.277c-0.187-0.578-0.383-1.254-0.584-2.046
		c-0.642-2.539-1.131-5.453-1.603-8.27l-0.187-1.126c-0.659-3.883-1.349-7.65-2.592-11.044c-1.88-5.13-4.419-9.742-7.553-13.708
		c-3.134-3.968-6.897-7.337-11.176-10.01c-4.045-2.529-8.595-4.461-13.52-5.742c-4.528-1.177-9.464-1.827-14.674-1.93
		c-2.338-0.046-4.685-0.064-7.034-0.034c-2.665,0.039-5.073,0.142-7.363,0.314c-2.721,0.205-5.224,0.5-7.645,0.899
		c-2.718,0.447-5.36,1.036-7.858,1.75c-10.366,2.969-19.528,8.349-27.23,15.991c-6.696,6.64-12.246,14.964-16.498,24.742
		c-3.651,8.401-6.319,17.803-7.925,27.952c-1.427,9.011-1.978,18.276-1.64,27.537c0.198,5.405,0.796,10.801,1.777,16.045
		c1.02,5.426,2.455,10.72,4.274,15.732c1.908,5.264,4.257,10.288,6.989,14.935c2.888,4.909,6.232,9.458,9.942,13.52
		c5.869,6.428,13.824,12.011,23.012,16.15c8.872,3.995,18.598,6.511,28.126,7.281c10.475,0.845,20.556-0.471,29.157-3.806
		c10.151-3.94,18.408-10.746,23.886-19.685c1.531-2.5,2.9-5.187,4.067-7.988c1.095-2.622,2.036-5.4,2.802-8.256
		c0.377-1.415,0.715-2.862,1.014-4.331l-0.006,31.751l0.006,119.327c0,1.946,0.391,3.838,1.087,5.451
		c0.718,1.73,1.754,3.282,3.084,4.612c1.305,1.305,2.824,2.328,4.508,3.041c1.765,0.747,3.634,1.127,5.553,1.127h165.113
		c2.562,0,5.098-0.397,7.525-1.175c2.413-0.772,4.676-1.902,6.718-3.353c2.117-1.5,3.958-3.31,5.458-5.358
		c1.556-2.116,2.74-4.458,3.52-6.965l0.257-0.88c1.377-4.927,1.486-9.655,0.324-14.077c-1.182-4.469-3.693-8.497-7.263-11.647
		c-2.771-2.447-6.171-4.38-10.098-5.743c-3.092-1.077-6.489-1.793-10.098-2.131c-3.011-0.282-5.992-0.888-8.861-1.802
		c-2.891-0.919-5.559-2.12-7.944-3.576c-2.344-1.427-4.349-3.069-5.961-4.874c-1.575-1.768-2.771-3.704-3.556-5.756
		c-0.374-0.974-0.682-2.034-0.936-3.222c-0.251-1.184-0.444-2.465-0.589-3.915c-0.151-1.504-0.232-3.021-0.279-4.539
		c-0.056-1.7-0.073-3.402-0.087-5.099c-0.02-2.321-0.036-4.654-0.003-6.986c0.034-2.434,0.117-4.562,0.26-6.5
		c0.156-2.162,0.388-4.101,0.698-5.916c0.335-1.929,0.751-3.671,1.274-5.316c1.858-5.852,5.162-11.236,9.821-16.005
		c4.52-4.63,10.235-8.633,16.986-11.896c6.517-3.151,13.676-5.469,21.283-6.891c7.218-1.351,14.612-1.802,21.355-1.311
		c4.623,0.337,9.215,1.055,13.648,2.136c4.506,1.098,8.844,2.571,12.897,4.38c4.134,1.842,7.986,4.041,11.456,6.536
		c3.553,2.555,6.743,5.447,9.475,8.594c3.746,4.319,6.914,10.12,9.159,16.784c2.313,6.859,3.495,14.188,3.414,21.186
		c-0.081,7.042-1.461,13.486-3.983,18.632c-2.525,5.147-6.196,9.002-10.911,11.456c-1.366,0.711-2.821,1.314-4.441,1.842
		c-1.534,0.497-3.232,0.933-5.198,1.332c-2.006,0.409-4.036,0.73-6.09,1.038l-2.307,0.339c-1.561,0.229-3.134,0.458-4.824,0.726
		c-0.5,0.08-1.006,0.162-1.548,0.263c-0.732,0.138-1.458,0.296-2.17,0.485c-0.939,0.247-1.863,0.548-2.793,0.922
		c-1.128,0.457-2.196,1.001-3.115,1.581c-2.38,1.479-4.388,3.43-5.969,5.786c-1.265,1.886-2.243,4.02-2.902,6.341
		c-0.514,1.81-0.841,3.751-0.964,5.77c-0.103,1.669-0.075,3.383,0.087,5.077c0.553,5.957,1.849,10.44,4.073,14.108
		c2.796,4.609,7.056,7.778,12.316,9.164c2.617,0.689,5.249,0.883,7.799,0.883c1.02,0,2.025-0.031,3.011-0.074l2.536-0.129
		c1.913-0.103,4.017-0.223,6.316-0.223h153.375c1.947,0,3.838-0.39,5.464-1.092c1.726-0.716,3.274-1.751,4.598-3.075
		c1.33-1.33,2.366-2.881,3.011-4.439c0.768-1.782,1.156-3.675,1.156-5.624V64.231C1092.261,62.296,1091.875,60.416,1091.177,58.78z"
		/>
</g>
</svg>
