<?xml version="1.0"?>
<svg version="1.1" xmlns="http://www.w3.org/2000/svg" width="400" height="200"><path fill="#fa3939" d="M34.08,107.2l0,4.4l-8.08,0l0,7.6l7.16,0l0.92-3.28l3.6,0l0,8.08l-20.88,0l0-3.4l3-1.2l0-18.8l-3-1.2l0-3.4l9.2-0.2l11.2,0l0,7.72l-3.6,0l-1-2.92l-6.6,0l0,6.6l8.08,0z M58.8604,124l-0.36-2.12c-0.56,0.56-2.6,2.52-6.04,2.52c-5.6,0-8.2-4.08-8.2-10.68c0-7.52,3.6-11.72,10.92-11.72c0.96,0,2.12,0.2,3,0.4l0-5.08l-3.2-0.8l0-3.2l9.2-0.32l0,26.72l3.2,0.8l0,3.2z M58.1804,117.32l0-9.92c-0.76-0.36-1.96-0.6-3.12-0.6c-3.4,0-4.6,2.6-4.6,6.6c0,4.04,1.12,6.2,3.84,6.2c2.56,0,3.88-2.28,3.88-2.28z M71.5608,105.8l0-3.2l9.2-0.2l0,13.8c0,2.2,0.64,3.2,2.44,3.2c2.6,0,4.52-2.16,4.52-2.16l0-10.44l-3.2-1l0-3.2l9.2-0.2l0,17.4l3.2,0.8l0,3.12l-8.44,0.28l-0.4-2.8s-3.2,3.2-7,3.2c-4,0-6.32-2.68-6.32-7.16l0-10.44z M109.3812,119.4l0-18.8l-3.8,0l-1,3.8l-3.68,0l0-8.6l23.2,0l0,8.6l-3.72,0l-1-3.8l-3.8,0l0,18.8l3.8,1.2l0,3.4l-13.8,0l0-3.4z M139.4816,102c6.48,0,10.08,3.92,10.08,10.8c0,7.2-4.2,11.6-10.68,11.6c-6.52,0-10.2-3.4-10.2-11c0-7.2,4.28-11.4,10.8-11.4z M139.2816,106.8c-2.92,0-4.4,1.6-4.4,6.4c0,4.4,1.28,6.4,4.2,6.4c2.88,0,4.28-1.8,4.28-6.6c0-4.08-1.2-6.2-4.08-6.2z M153.942,105.8l0-3.2l10.68-0.2l0,3.4l-2.24,0.4l3.56,11.2l3.4-11.08l-2.32-0.52l0-3.2l10.76-0.2l0,3.4l-2.48,0.52l-5.88,16.4c-1.92,5.28-4.52,10.88-10.88,10.88c-1.36,0-3.88-0.32-3.88-0.32l0.56-4.28l2.6,0c3.2,0,4.68-3.4,5.36-4.96l-7.12-17.6z M185.6824,117l0.32,2.6s1.4,0.4,3.36,0.4c2.2,0,3.28-0.68,3.28-1.96c0-3.28-10.68-2.08-10.68-9.2c0-5,4-6.84,8.24-6.84c3.6,0,7.44,1.2,7.44,1.2l-0.16,6l-3.4,0l-0.6-2.4s-1.16-0.4-2.76-0.4c-1.72,0-2.76,0.72-2.76,2.04c0,3.24,10.68,1.84,10.68,8.76c0,4.6-3.72,7.2-9.2,7.2c-3.8,0-7.36-0.88-7.36-0.88l0-6.52l3.6,0z M204.2228,124l0-3.4l3-1.2l0-18.8l-3-1.2l0-3.4l12.4-0.2l0,3.6l-3.2,1.2l0,6.4l10.48,0l0-6.4l-3.2-1.2l0-3.4l12.4-0.2l0,3.6l-3,1.2l0,18.8l3,1.2l0,3.4l-12.4,0l0-3.4l3.2-1.2l0-7.6l-10.48,0l0,7.6l3.2,1.2l0,3.4l-12.4,0z M237.8832,105.8l0-3.2l9.2-0.2l0,13.8c0,2.2,0.64,3.2,2.44,3.2c2.6,0,4.52-2.16,4.52-2.16l0-10.44l-3.2-1l0-3.2l9.2-0.2l0,17.4l3.2,0.8l0,3.12l-8.44,0.28l-0.4-2.8s-3.2,3.2-7,3.2c-4,0-6.32-2.68-6.32-7.16l0-10.44z M276.0236,93l0,11.12c0.68-0.52,2.68-2.12,5.72-2.12c5.36,0,8.2,3.88,8.2,10.6c0,7.52-3.92,11.88-11.6,11.88c-4.4,0-8.32-0.88-8.32-0.88l0-26.28l-3-0.8l0-3.2z M276.0236,108.6l0,10.76s0.92,0.32,2.96,0.32c3.48,0,4.76-2.64,4.76-6.68c0-4-1.12-6.2-3.92-6.2c-2.4,0-3.8,1.8-3.8,1.8z"/><path fill="#" d=""/></svg>
